<svg id="Layer_1" data-name="Layer 1" xmlns="http://www.w3.org/2000/svg" xmlns:xlink="http://www.w3.org/1999/xlink" viewBox="0 0 790.85 403.05"><defs><linearGradient id="linear-gradient" x1="-14.57" y1="135.29" x2="736.3" y2="135.29" gradientUnits="userSpaceOnUse"><stop offset="0.04" stop-color="#025471"/><stop offset="0.3" stop-color="#125e7b"/><stop offset="1" stop-color="#3b7795"/></linearGradient><linearGradient id="linear-gradient-2" y1="253.7" x2="683.27" y2="253.7" gradientUnits="userSpaceOnUse"><stop offset="0.04" stop-color="#025471"/><stop offset="0.22" stop-color="#0f5c79"/><stop offset="0.72" stop-color="#2f708d"/><stop offset="1" stop-color="#3b7795"/></linearGradient><linearGradient id="linear-gradient-3" x1="-0.23" y1="96.18" x2="783.45" y2="96.18" gradientUnits="userSpaceOnUse"><stop offset="0.04" stop-color="#025471"/><stop offset="1" stop-color="#498fb2"/></linearGradient></defs><title>Untitled-1-01</title><path d="M704.47,76.16a201.15,201.15,0,0,0,27-17.06c.11-.1,1.46-1.3,3.42-2.72a10.61,10.61,0,0,1,1.37-.94c.35.37-20.17,24.28-50.34,47.29-8.77,6.69-15.61,11.22-17.61,12.53-18,11.8-32.94,18.72-45.42,24.44A208.3,208.3,0,0,1,602.51,148c-5.71,2-11.17,3.52-17.8,5.15-14.56,3.56-29.82,6.07-48.23,8.4-15.09,1.91-26.18,2.65-38.26,3.43s-44.27,2.6-91.3,1.57c-7.6-.17-17.5-.58-37.32-1.39-59.4-2.45-69.74-3.59-109.21-4.89-32.46-1.07-50.33-1.13-62.07-1.06-25.55.15-38.33.14-48.58,1.41-18.32,2.28-35.24,6.7-69.09,15.53-2.3.6-8.82,1.71-17.24,4.39a162.42,162.42,0,0,0-15.35,5.83c-34.85,14.82-35.29,14.86-41.5,17.87C1.32,206.79-6,210.44-14.57,215.15l.64-32.85c23.89-11.76,42.34-19.81,54.75-25,5.45-2.27,9.51-3.88,13.36-5.36a382.31,382.31,0,0,1,40.95-13.52c4.88-1.3,11.14-2.94,19.43-4.55a255.21,255.21,0,0,1,36.07-4.34c58.8-3.06,88.2-4.59,93.88-4.7,80.29-1.5,63.25-2.27,122.49-3,61.86-.78,65.81.24,105.27-1.18,50.26-1.82,77.35-4.69,97-7.28,36.3-4.8,58.51-10.15,70.32-13.23C639.55,100.15,678.9,89.86,704.47,76.16Z" style="fill:url(#linear-gradient)"/><path d="M661.32,119.55c14.25-8.8,21.39-14.81,21.92-14.15,1.06,1.31-25.92,26.66-61.09,51.37-14,9.84-60.72,41.15-184.69,70.29C348,248.1,341.68,239,263,260.93c-36.12,10.08-75.92,21.39-123.33,44.74A570.56,570.56,0,0,0,.88,402.05Q.44,305,0,207.89c5-2.82,12.12-6.72,20.92-11,0,0,47.49-23.08,102-32.81,61.68-11,154.16-4.53,276.07,1.18,0,0,147.59,6.91,215.23-21.8A388.09,388.09,0,0,0,661.32,119.55Z" style="fill:url(#linear-gradient-2)"/><path d="M750.36,30.13c6.77-3.81,31.19-22.07,33-19.88S760.84,36.69,736.3,55.44c-6,4.58-10.84,8-13,9.38a231.33,231.33,0,0,1-25.92,15.26c-10.2,5-17.92,7.74-28.22,11.4-4,1.43-15.77,5.52-31.74,9.69-21.33,5.57-38.28,8.15-54.53,10.65-8,1.23-15.42,2.23-22.24,3.05-12.12,1.46-23.84,2.56-38.05,3.56-8.61.6-39.08,2.62-92.09,3.06-9.66.08-12.08,0-19,.05l-8.73,0c-25.8.1-101.45,2.18-101.45,2.18-42.06,1.16-45.78,1.17-60.36,1.8-4,.17-16.63.79-41.83,2-58.71,2.85-19,1-26.55,1.4,0,0-25.88,1.2-40.62,3.79-2.67.47-4.61.85-6.14,1.16a338,338,0,0,0-42.49,11.8c-19.25,6.58-33.63,13-43,17.23-6.73,3-14.18,6.53-16.29,7.53-10,4.71-18.33,8.81-24.38,11.84q.33-28.4.67-56.79a622,622,0,0,1,95.34-33s9.55-2.56,19.24-4.65C185.76,72.64,412.19,75.11,499.8,74.61,617.29,73.94,687.58,65.52,750.36,30.13Z" style="fill:url(#linear-gradient-3)"/></svg>